<svg xmlns="http://www.w3.org/2000/svg" viewBox="0 0 72 72" style="stroke-linejoin:round;stroke-miterlimit:2;fill:#dfdfdf">
    <path d="M31.807,0.36C32.95,0.179 34.103,0.065 35.259,0.017C37.564,-0.07 39.869,0.182 42.1,0.766C44.015,1.239 45.864,1.948 47.605,2.875C50.824,4.577 53.627,6.969 55.815,9.879C56.942,11.353 57.897,12.953 58.661,14.645C59.506,16.496 60.113,18.448 60.465,20.453C60.668,21.586 60.793,22.733 60.84,23.884C60.953,27.605 60.46,31.096 59.797,34.18C59.361,36.191 58.802,38.172 58.125,40.116C56.175,45.746 53.49,50.728 50.511,55.332C47.534,59.936 44.144,64.167 40.533,68.187C39.636,69.189 38.711,70.164 37.758,71.114C37.451,71.456 37.07,71.723 36.645,71.898C36.128,72.063 35.567,72.027 35.075,71.796C34.66,71.59 34.344,71.218 34.047,70.93C32.779,69.655 31.557,68.338 30.379,66.981C29.785,66.3 29.182,65.633 28.611,64.943C25.146,60.768 21.951,56.399 19.157,51.567C16.379,46.761 13.991,41.465 12.47,35.427C11.935,33.296 11.559,31.127 11.345,28.939C11.116,26.601 11.045,24.007 11.334,21.737C11.595,19.657 12.117,17.619 12.891,15.67C13.583,13.927 14.476,12.271 15.552,10.735C18.666,6.292 22.983,2.901 28.726,1.082C29.735,0.768 30.765,0.527 31.807,0.36ZM31.44,49.386C27.471,48.65 23.743,46.953 20.582,44.444C20.582,44.433 20.57,44.436 20.57,44.456C22.468,48.458 24.718,52.282 27.294,55.885C28.786,53.791 30.17,51.621 31.44,49.386ZM52.619,13.287C52.645,13.244 52.592,13.207 52.574,13.176C51.722,11.949 50.727,10.829 49.61,9.838C47.307,7.8 44.628,6.188 41.177,5.271C39.265,4.759 37.287,4.54 35.31,4.62C31.376,4.804 28.37,5.849 25.753,7.389C23.293,8.828 21.163,10.768 19.499,13.081C19.445,13.155 19.363,13.223 19.37,13.291C21.337,12.425 24.282,12.043 26.97,12.45C27.77,12.576 28.558,12.772 29.324,13.034C32.244,13.997 34.422,15.812 35.999,18.089C37.97,15.243 40.859,13.122 45.005,12.445C47.709,12.002 50.659,12.45 52.619,13.287ZM30.14,59.669C31.521,61.426 32.967,63.129 34.473,64.778C34.907,65.254 35.34,65.76 35.797,66.22C35.858,66.291 35.924,66.359 35.996,66.421C36.013,66.421 36.205,66.209 36.277,66.133C36.574,65.818 36.854,65.508 37.121,65.219C39.747,62.366 42.198,59.358 44.464,56.213C47.14,52.516 49.461,48.575 51.397,44.441C47.561,47.394 42.977,49.601 36.393,49.806C34.539,53.234 32.45,56.53 30.14,59.669ZM24.302,16.579C20.858,16.742 18.517,18.387 17.098,20.617C16.297,21.892 15.818,23.343 15.703,24.845C15.65,25.721 15.69,26.601 15.821,27.469C16.344,31.586 17.885,34.772 19.955,37.412C21.606,39.53 23.655,41.306 25.987,42.639C28.631,44.165 31.594,45.055 34.642,45.239C36.381,45.348 38.128,45.237 39.841,44.908C44.013,44.107 47.829,42.013 50.746,38.924C52.558,36.961 54.078,34.724 55.067,31.991C55.603,30.532 55.974,29.017 56.174,27.475C56.304,26.606 56.343,25.727 56.291,24.851C56.067,22.275 55.042,20.483 53.633,19.074C52.639,18.095 51.414,17.382 50.072,16.999C49.28,16.765 48.46,16.629 47.635,16.597C46.777,16.562 45.918,16.64 45.081,16.831C43.698,17.149 42.41,17.793 41.326,18.709C39.817,20.009 38.733,21.825 38.373,24.198C38.248,25.041 38.284,25.906 38.27,26.89C38.225,29.7 38.258,32.503 38.258,35.313C38.258,35.781 38.317,36.33 38.208,36.671C38.089,37.039 37.816,37.248 37.367,37.248C36.378,37.256 35.435,37.262 34.568,37.237C34.192,37.251 33.857,36.995 33.772,36.63C33.666,36.271 33.736,35.745 33.736,35.283L33.736,26.838C33.736,25.889 33.734,24.991 33.607,24.156C33.408,22.705 32.854,21.324 31.995,20.137C31.206,19.045 30.165,18.156 28.962,17.548C27.518,16.829 25.912,16.495 24.302,16.579ZM21.221,18.349L21.221,18.347C22.198,17.87 23.263,17.6 24.348,17.551C26.924,17.429 28.76,18.483 30.079,19.684C30.778,20.316 31.347,21.079 31.753,21.932C32.233,22.907 32.504,23.972 32.549,25.059C32.619,27.639 31.676,29.412 30.429,30.774C29.783,31.461 29.017,32.025 28.168,32.436C27.2,32.925 26.137,33.201 25.053,33.245C23.907,33.293 22.763,33.092 21.702,32.659C20.817,32.302 20.01,31.777 19.326,31.113C18.008,29.819 16.965,28.182 16.852,25.739C16.801,24.597 16.999,23.457 17.43,22.399C17.794,21.519 18.317,20.714 18.972,20.023C19.609,19.328 20.371,18.76 21.221,18.349ZM24.558,22.071L24.558,22.074C22.787,22.145 21.369,23.622 21.369,25.394C21.369,25.443 21.37,25.492 21.372,25.541C21.403,26.41 21.778,27.232 22.413,27.826C23.06,28.451 23.94,28.778 24.838,28.727C25.707,28.691 26.528,28.316 27.123,27.683C27.746,27.035 28.072,26.156 28.023,25.257C28,24.387 27.625,23.563 26.982,22.974C26.33,22.357 25.455,22.031 24.558,22.071ZM41.574,20.023C42.86,18.712 44.467,17.669 46.95,17.558C48.096,17.508 49.24,17.708 50.301,18.145C54.282,19.789 56.205,24.418 54.563,28.4C54.195,29.278 53.672,30.082 53.017,30.776C52.379,31.469 51.617,32.037 50.769,32.45C49.793,32.929 48.728,33.199 47.642,33.246C45.522,33.353 43.448,32.582 41.915,31.113C41.228,30.467 40.665,29.701 40.251,28.853C39.764,27.885 39.488,26.823 39.443,25.741C39.399,24.598 39.598,23.46 40.029,22.401C40.379,21.513 40.904,20.704 41.574,20.023ZM47.163,22.071C45.334,22.15 43.89,23.719 43.966,25.549C44.055,27.372 45.621,28.802 47.444,28.727C48.312,28.693 49.134,28.317 49.728,27.683C50.35,27.034 50.677,26.156 50.63,25.257C50.593,24.391 50.219,23.571 49.589,22.974C48.94,22.353 48.062,22.026 47.163,22.071Z"/>
</svg>
