<?xml version="1.0" encoding="UTF-8" standalone="no"?><!DOCTYPE svg PUBLIC "-//W3C//DTD SVG 1.1//EN" "http://www.w3.org/Graphics/SVG/1.1/DTD/svg11.dtd"><svg width="100%" height="100%" viewBox="0 0 62 86" version="1.1" xmlns="http://www.w3.org/2000/svg" xmlns:xlink="http://www.w3.org/1999/xlink" xml:space="preserve" xmlns:serif="http://www.serif.com/" style="fill-rule:evenodd;clip-rule:evenodd;stroke-linejoin:round;stroke-miterlimit:2;"><g transform="matrix(1,0,0,1,-41.1175,-29.4814)"><g transform="matrix(0.164972,0,0,0.164972,38.2546,25.551)"><path d="M175.55,34.56C168.329,35.711 161.2,37.382 154.22,39.56C114.46,52.15 84.56,75.63 63.01,106.39C55.555,117.022 49.37,128.49 44.58,140.56C39.228,154.049 35.606,168.161 33.8,182.56C31.8,198.28 32.29,216.24 33.88,232.43C35.358,247.576 37.962,262.591 41.67,277.35C52.2,319.15 68.73,355.82 87.97,389.09C107.31,422.55 129.43,452.8 153.42,481.7C157.37,486.48 161.55,491.1 165.66,495.81C173.812,505.208 182.28,514.326 191.05,523.15C193.11,525.15 195.3,527.72 198.17,529.15C201.578,530.743 205.464,530.996 209.05,529.86C211.99,528.647 214.621,526.792 216.75,524.43C223.342,517.854 229.747,511.095 235.96,504.16C260.96,476.33 284.43,447.04 305.05,415.16C325.67,383.28 344.26,348.79 357.76,309.81C362.45,296.358 366.317,282.632 369.34,268.71C373.93,247.36 377.34,223.19 376.56,197.43C376.231,189.46 375.363,181.522 373.96,173.67C371.523,159.79 367.326,146.278 361.47,133.46C356.18,121.747 349.57,110.675 341.77,100.46C326.619,80.315 307.21,63.758 284.93,51.97C272.873,45.552 260.069,40.648 246.81,37.37C231.363,33.327 215.406,31.578 199.45,32.18C191.444,32.513 183.464,33.308 175.55,34.56Z" style="fill:white;"/></g><path d="M71.247,29.481L72.757,29.481C77.551,29.654 81.524,30.712 84.953,32.322C88.244,33.852 91.242,35.944 93.813,38.505C99.41,44.086 102.658,51.605 102.886,59.505L102.886,61.661C102.647,68.352 101.197,73.96 99.346,79.07C97.495,84.18 95.083,88.747 92.429,93.092C89.795,97.4 86.786,101.397 83.612,105.225C82.029,107.124 80.379,108.967 78.665,110.75C77.827,111.618 77.016,112.598 75.971,113.295C74.789,114.095 73.394,114.521 71.967,114.519C70.545,114.514 69.157,114.074 67.992,113.258C66.935,112.554 66.146,111.577 65.299,110.712C64.452,109.847 63.609,108.9 62.789,107.98C58.629,103.329 54.872,98.331 51.561,93.042C48.768,88.621 46.449,83.917 44.643,79.009C42.783,73.904 41.355,68.288 41.118,61.598L41.118,59.65C41.125,59.65 41.131,59.641 41.13,59.626C41.31,51.696 44.553,44.137 50.174,38.541C52.736,35.966 55.734,33.864 59.028,32.332C62.46,30.733 66.433,29.638 71.247,29.481ZM67.621,34.7C66.531,34.874 65.454,35.126 64.4,35.455C58.396,37.356 53.882,40.902 50.627,45.546C49.502,47.152 48.568,48.883 47.845,50.706C47.036,52.743 46.49,54.874 46.217,57.048C45.915,59.422 45.989,62.134 46.229,64.578C46.452,66.865 46.845,69.133 47.405,71.361C48.995,77.673 51.491,83.21 54.396,88.234C57.317,93.286 60.657,97.854 64.279,102.218C64.876,102.94 65.507,103.637 66.128,104.349C67.359,105.768 68.637,107.145 69.962,108.477C70.273,108.779 70.603,109.167 71.037,109.383C71.551,109.624 72.138,109.662 72.679,109.49C73.123,109.307 73.521,109.027 73.842,108.67C74.838,107.677 75.805,106.657 76.743,105.61C80.518,101.407 84.062,96.984 87.175,92.171C90.289,87.357 93.096,82.149 95.135,76.263C95.843,74.231 96.427,72.159 96.883,70.057C97.576,66.833 98.091,63.183 97.973,59.293C97.924,58.09 97.793,56.891 97.581,55.706C97.213,53.61 96.579,51.569 95.695,49.634C94.896,47.865 93.898,46.193 92.72,44.651C90.432,41.609 87.502,39.109 84.137,37.329C82.317,36.36 80.383,35.619 78.381,35.124C76.049,34.514 73.639,34.25 71.23,34.341C70.021,34.391 68.816,34.511 67.621,34.7ZM67.237,85.954C65.909,88.291 64.462,90.559 62.902,92.749C60.209,88.982 57.857,84.984 55.873,80.8C55.873,80.779 55.885,80.776 55.885,80.788C59.19,83.411 63.088,85.185 67.237,85.954ZM65.878,96.705C68.293,93.423 70.477,89.977 72.415,86.393C79.298,86.179 84.091,83.872 88.101,80.785C86.077,85.106 83.651,89.227 80.853,93.092C78.484,96.38 75.921,99.524 73.176,102.507C72.897,102.809 72.604,103.133 72.294,103.462C72.219,103.542 72.018,103.764 72,103.764C71.925,103.699 71.856,103.628 71.792,103.553C71.314,103.073 70.861,102.543 70.408,102.046C68.833,100.322 67.322,98.541 65.878,96.705ZM89.379,48.214C87.33,47.339 84.245,46.871 81.419,47.334C77.084,48.042 74.064,50.259 72.003,53.235C70.354,50.854 68.077,48.957 65.025,47.95C64.224,47.676 63.4,47.471 62.564,47.339C59.754,46.914 56.675,47.313 54.618,48.219C54.611,48.148 54.697,48.076 54.753,47.999C56.493,45.581 58.72,43.553 61.291,42.048C64.027,40.438 67.17,39.346 71.283,39.154C73.35,39.07 75.418,39.299 77.416,39.834C81.024,40.793 83.825,42.478 86.233,44.609C87.401,45.645 88.441,46.816 89.332,48.098C89.35,48.131 89.406,48.169 89.379,48.214ZM59.774,51.656C61.458,51.568 63.137,51.917 64.646,52.669C65.904,53.305 66.992,54.234 67.817,55.376C68.715,56.617 69.294,58.06 69.502,59.577C69.635,60.45 69.637,61.389 69.637,62.381L69.637,71.21C69.637,71.693 69.564,72.243 69.675,72.618C69.764,73 70.114,73.268 70.507,73.253C71.413,73.279 72.399,73.273 73.433,73.265C73.903,73.265 74.188,73.046 74.313,72.661C74.427,72.305 74.365,71.731 74.365,71.242C74.365,68.304 74.33,65.373 74.377,62.436C74.392,61.407 74.354,60.503 74.485,59.621C74.861,57.14 75.995,55.242 77.572,53.883C78.706,52.925 80.052,52.252 81.498,51.92C82.373,51.72 83.271,51.638 84.168,51.675C85.031,51.708 85.888,51.85 86.716,52.095C88.119,52.496 89.399,53.241 90.439,54.264C91.912,55.737 92.983,57.611 93.217,60.304C93.272,61.22 93.231,62.139 93.095,63.047C92.886,64.659 92.498,66.243 91.938,67.769C90.904,70.626 89.315,72.965 87.42,75.017C84.371,78.246 80.381,80.435 76.02,81.273C74.229,81.617 72.403,81.733 70.584,81.619C67.398,81.426 64.3,80.496 61.536,78.901C59.098,77.507 56.956,75.65 55.23,73.436C53.066,70.676 51.455,67.345 50.908,63.041C50.771,62.134 50.729,61.214 50.785,60.298C50.905,58.728 51.406,57.211 52.243,55.878C53.726,53.546 56.174,51.826 59.774,51.656ZM56.553,53.506C55.665,53.936 54.868,54.53 54.202,55.257C53.517,55.979 52.971,56.821 52.59,57.741C52.139,58.847 51.933,60.039 51.986,61.232C52.104,63.786 53.194,65.498 54.572,66.851C55.287,67.545 56.131,68.094 57.056,68.467C58.166,68.92 59.362,69.13 60.56,69.08C61.693,69.034 62.804,68.745 63.816,68.234C64.704,67.804 65.505,67.215 66.18,66.496C67.484,65.072 68.47,63.219 68.396,60.521C68.349,59.385 68.066,58.272 67.564,57.252C67.14,56.361 66.545,55.563 65.814,54.902C64.435,53.647 62.516,52.545 59.823,52.672C58.688,52.723 57.575,53.006 56.553,53.504L56.553,53.506ZM60.042,57.398C60.98,57.356 61.895,57.697 62.576,58.342C63.248,58.957 63.641,59.819 63.665,60.729C63.716,61.668 63.375,62.587 62.724,63.265C62.102,63.927 61.243,64.319 60.335,64.356C59.396,64.41 58.476,64.068 57.8,63.414C57.136,62.793 56.744,61.934 56.711,61.025C56.709,60.974 56.708,60.923 56.708,60.872C56.708,59.019 58.191,57.475 60.042,57.401L60.042,57.398ZM77.832,55.257C77.131,55.969 76.582,56.814 76.216,57.743C75.766,58.85 75.558,60.04 75.604,61.234C75.651,62.366 75.939,63.476 76.448,64.488C76.881,65.374 77.47,66.175 78.188,66.851C79.791,68.386 81.959,69.193 84.175,69.081C85.311,69.032 86.424,68.749 87.444,68.248C88.331,67.817 89.128,67.223 89.795,66.498C90.479,65.773 91.026,64.932 91.411,64.014C93.128,59.851 91.117,55.012 86.955,53.293C85.846,52.836 84.65,52.627 83.452,52.68C80.856,52.796 79.176,53.886 77.832,55.256L77.832,55.257ZM83.675,57.398C84.614,57.351 85.532,57.692 86.211,58.342C86.87,58.966 87.26,59.823 87.299,60.729C87.348,61.668 87.006,62.586 86.356,63.265C85.735,63.928 84.876,64.321 83.968,64.356C82.062,64.435 80.425,62.94 80.332,61.034C80.253,59.121 81.762,57.48 83.675,57.398Z"/></g></svg>