<svg xmlns="http://www.w3.org/2000/svg" viewBox="0 0 72 72" style="stroke-linejoin:round;stroke-miterlimit:2;fill:#fff">
    <path d="M33.841,17.614C34.43,17.521 35.024,17.462 35.62,17.437C36.808,17.393 37.996,17.523 39.145,17.823C40.132,18.067 41.086,18.433 41.983,18.91C43.641,19.788 45.086,21.02 46.214,22.52C46.794,23.28 47.286,24.104 47.68,24.976C48.116,25.93 48.428,26.936 48.61,27.969C48.714,28.553 48.779,29.144 48.803,29.737C48.861,31.655 48.607,33.454 48.266,35.043C48.041,36.079 47.753,37.101 47.404,38.102C46.399,41.004 45.015,43.571 43.48,45.944C41.946,48.316 40.199,50.497 38.338,52.568C37.876,53.085 37.399,53.587 36.908,54.077C36.75,54.253 36.554,54.391 36.335,54.481C36.068,54.566 35.779,54.547 35.525,54.428C35.311,54.322 35.149,54.131 34.995,53.982C34.342,53.325 33.712,52.646 33.105,51.947C32.799,51.596 32.488,51.252 32.194,50.896C30.409,48.745 28.762,46.494 27.322,44.003C25.89,41.527 24.66,38.797 23.876,35.686C23.6,34.588 23.406,33.47 23.296,32.342C23.178,31.138 23.142,29.801 23.291,28.63C23.425,27.559 23.694,26.508 24.093,25.504C24.449,24.606 24.91,23.752 25.464,22.961C27.069,20.672 29.294,18.924 32.254,17.986C32.773,17.824 33.304,17.7 33.841,17.614ZM33.652,42.879C31.607,42.5 29.685,41.626 28.056,40.333C28.056,40.327 28.05,40.328 28.05,40.339C29.028,42.401 30.188,44.372 31.515,46.229C32.284,45.149 32.997,44.031 33.652,42.879ZM44.567,24.276C44.58,24.254 44.552,24.235 44.544,24.219C44.104,23.587 43.592,23.01 43.016,22.499C41.829,21.448 40.448,20.618 38.67,20.145C37.685,19.881 36.665,19.768 35.647,19.81C33.619,19.905 32.07,20.443 30.721,21.236C29.454,21.978 28.356,22.978 27.498,24.17C27.471,24.208 27.428,24.243 27.432,24.278C28.446,23.832 29.963,23.635 31.349,23.845C31.761,23.91 32.167,24.011 32.562,24.146C34.066,24.642 35.189,25.577 36.001,26.751C37.017,25.284 38.506,24.191 40.643,23.842C42.036,23.614 43.557,23.845 44.567,24.276ZM32.982,48.179C33.694,49.084 34.439,49.962 35.215,50.812C35.438,51.057 35.662,51.318 35.897,51.555C35.929,51.591 35.963,51.626 36,51.659C36.009,51.659 36.108,51.549 36.145,51.51C36.298,51.347 36.442,51.188 36.58,51.039C37.933,49.568 39.196,48.019 40.364,46.398C41.743,44.493 42.939,42.461 43.937,40.331C41.96,41.853 39.597,42.99 36.205,43.096C35.249,44.862 34.173,46.561 32.982,48.179ZM29.973,25.973C28.199,26.056 26.992,26.904 26.261,28.054C25.848,28.711 25.601,29.459 25.542,30.233C25.515,30.684 25.535,31.138 25.603,31.585C25.873,33.706 26.667,35.348 27.733,36.709C28.584,37.8 29.64,38.715 30.842,39.403C32.204,40.189 33.731,40.647 35.302,40.742C36.199,40.799 37.099,40.741 37.982,40.572C40.131,40.159 42.098,39.08 43.601,37.488C44.535,36.477 45.318,35.324 45.828,33.915C46.104,33.163 46.295,32.382 46.398,31.588C46.465,31.14 46.486,30.687 46.459,30.235C46.343,28.908 45.815,27.984 45.089,27.258C44.577,26.754 43.946,26.387 43.254,26.189C42.846,26.068 42.423,25.998 41.998,25.982C41.556,25.964 41.113,26.004 40.682,26.103C39.969,26.266 39.306,26.598 38.747,27.07C37.969,27.74 37.41,28.676 37.225,29.899C37.16,30.334 37.179,30.779 37.172,31.286C37.148,32.734 37.166,34.179 37.166,35.627C37.166,35.868 37.196,36.151 37.14,36.327C37.078,36.516 36.938,36.624 36.706,36.624C36.197,36.628 35.711,36.631 35.264,36.619C35.07,36.626 34.898,36.494 34.854,36.306C34.799,36.121 34.835,35.85 34.835,35.611L34.835,31.259C34.835,30.77 34.834,30.307 34.769,29.877C34.666,29.129 34.381,28.418 33.938,27.806C33.531,27.243 32.995,26.785 32.375,26.472C31.631,26.101 30.803,25.929 29.973,25.973ZM28.386,26.885L28.386,26.884C28.889,26.638 29.438,26.499 29.997,26.473C31.325,26.411 32.271,26.954 32.951,27.573C33.311,27.898 33.604,28.292 33.813,28.731C34.061,29.234 34.2,29.782 34.223,30.342C34.26,31.672 33.774,32.586 33.131,33.288C32.798,33.642 32.403,33.933 31.966,34.144C31.467,34.396 30.919,34.539 30.361,34.562C29.77,34.586 29.181,34.483 28.633,34.259C28.178,34.075 27.761,33.805 27.409,33.463C26.73,32.796 26.192,31.952 26.134,30.693C26.108,30.105 26.21,29.517 26.432,28.972C26.62,28.519 26.889,28.104 27.227,27.748C27.555,27.389 27.948,27.096 28.386,26.885ZM30.105,28.803L30.105,28.804C29.193,28.841 28.462,29.602 28.462,30.515C28.462,30.541 28.462,30.566 28.463,30.591C28.48,31.039 28.673,31.462 29,31.769C29.333,32.091 29.787,32.259 30.25,32.233C30.697,32.215 31.121,32.021 31.427,31.695C31.748,31.361 31.916,30.908 31.891,30.445C31.879,29.996 31.686,29.571 31.355,29.268C31.019,28.95 30.568,28.782 30.105,28.803ZM38.875,27.747C39.537,27.072 40.365,26.535 41.645,26.477C42.236,26.451 42.825,26.554 43.372,26.78C45.423,27.627 46.415,30.012 45.568,32.064C45.379,32.517 45.109,32.931 44.772,33.289C44.443,33.646 44.05,33.939 43.613,34.151C43.11,34.398 42.561,34.538 42.001,34.562C40.909,34.617 39.84,34.219 39.05,33.463C38.696,33.13 38.406,32.735 38.193,32.298C37.942,31.799 37.8,31.252 37.776,30.694C37.754,30.105 37.856,29.519 38.078,28.973C38.259,28.515 38.529,28.098 38.875,27.747ZM41.755,28.803C40.812,28.843 40.068,29.652 40.107,30.595C40.153,31.535 40.96,32.272 41.899,32.233C42.347,32.216 42.77,32.022 43.077,31.695C43.397,31.36 43.566,30.908 43.541,30.445C43.522,29.998 43.33,29.576 43.005,29.268C42.67,28.948 42.218,28.78 41.755,28.803Z"/>
</svg>
