<svg xmlns="http://www.w3.org/2000/svg" xml:space="preserve" style="fill-rule:evenodd;clip-rule:evenodd;stroke-linejoin:round;stroke-miterlimit:2" viewBox="0 0 148.01 148.01"><path d="M148.01 31.5A31.51 31.51 0 0 0 116.51 0H31.5A31.51 31.51 0 0 0 0 31.5v85.02a31.51 31.51 0 0 0 31.5 31.5h85.02a31.51 31.51 0 0 0 31.5-31.5V31.49Z" style="fill:#474747"/><path d="M142.3 31.7a26 26 0 0 0-25.99-26H31.7a26 26 0 0 0-26 26v84.62a26 26 0 0 0 26 25.98h84.61a26 26 0 0 0 26-25.99V31.7Z" style="fill:#222"/><path d="M30.8 54.35a13.58 13.58 0 0 0-11.17 11.66 18.24 18.24 0 0 0 0 3.93c.12 1.2.32 2.38.61 3.54.83 3.3 2.14 6.18 3.65 8.8a52.68 52.68 0 0 0 5.16 7.3c.31.38.64.74.96 1.11.64.74 1.31 1.46 2 2.16.17.15.34.36.56.47.27.13.58.15.86.06.23-.1.44-.25.6-.43a56.2 56.2 0 0 0 6.96-8.6 38.35 38.35 0 0 0 4.16-8.31c.37-1.06.67-2.14.91-3.24.36-1.68.63-3.59.57-5.62a13.83 13.83 0 0 0-1.19-5.04 13.52 13.52 0 0 0-14.65-7.8Z" style="fill:#fff"/><path d="M32.72 53.5h.72a14.71 14.71 0 0 1 10.06 4.31 14.77 14.77 0 0 1 4.33 10.03v1.03c-.11 3.2-.8 5.88-1.7 8.32a36.83 36.83 0 0 1-3.3 6.7 49.87 49.87 0 0 1-6.57 8.43c-.4.41-.79.88-1.29 1.21a3.4 3.4 0 0 1-3.8-.01c-.51-.34-.89-.8-1.3-1.22-.4-.41-.8-.87-1.2-1.3a52.46 52.46 0 0 1-5.35-7.14 35.49 35.49 0 0 1-3.3-6.7 26.45 26.45 0 0 1-1.7-8.32v-.93h.01a14.69 14.69 0 0 1 8.55-13.04 14.68 14.68 0 0 1 5.84-1.37ZM30.99 56a12.43 12.43 0 0 0-10.22 10.67 16.7 16.7 0 0 0 0 3.6c.1 1.09.3 2.17.56 3.24a31.2 31.2 0 0 0 3.34 8.05c1.4 2.42 2.99 4.6 4.72 6.68.28.35.59.68.88 1.02.6.68 1.2 1.34 1.83 1.97.15.15.31.33.52.43.24.12.52.14.78.06.21-.1.4-.23.56-.4a51.41 51.41 0 0 0 6.37-7.88 35.1 35.1 0 0 0 3.8-7.6c.33-.96.61-1.95.83-2.96.33-1.54.58-3.28.52-5.14a12.64 12.64 0 0 0-1.09-4.61A12.35 12.35 0 0 0 31 56Zm-.19 24.48a37.91 37.91 0 0 1-2.07 3.24 37.33 37.33 0 0 1-3.35-5.71 12.34 12.34 0 0 0 5.42 2.47Zm-.65 5.13a42.13 42.13 0 0 0 3.13-4.92c3.28-.1 5.57-1.2 7.49-2.68a36.2 36.2 0 0 1-3.46 5.88 48.62 48.62 0 0 1-3.67 4.5l-.42.45-.14.14a.95.95 0 0 1-.1-.1 44.95 44.95 0 0 1-2.82-3.27Zm11.23-23.16a7.32 7.32 0 0 0-3.8-.42 6.55 6.55 0 0 0-4.5 2.82 6.45 6.45 0 0 0-4.5-2.82 7.35 7.35 0 0 0-3.8.42c0-.03.03-.06.06-.1a10.19 10.19 0 0 1 10.82-3.9 10.12 10.12 0 0 1 5.7 3.95c0 .01.03.03.02.05ZM27.24 64.1c.8-.04 1.6.13 2.33.49a4.44 4.44 0 0 1 2.32 3.3c.06.42.06.86.06 1.34v4.21c0 .23-.04.5.02.68a.4.4 0 0 0 .4.3h1.4c.22 0 .35-.1.41-.28.06-.17.03-.45.03-.68 0-1.4-.02-2.8 0-4.2.01-.5 0-.93.05-1.35a4.4 4.4 0 0 1 3.35-3.68 4.8 4.8 0 0 1 4.27 1.12c.7.7 1.22 1.6 1.33 2.88.03.44 0 .88-.06 1.31A10.14 10.14 0 0 1 32.4 78.4c-1.52-.09-3-.53-4.32-1.3a10.33 10.33 0 0 1-3.01-2.6 9.83 9.83 0 0 1-2.13-6.28c.06-.75.3-1.47.7-2.1a4.3 4.3 0 0 1 3.6-2.03Zm-1.54.89a3.89 3.89 0 0 0-.95 6.37 4.01 4.01 0 0 0 4.41.66 3.85 3.85 0 0 0 2.19-3.68 3.88 3.88 0 0 0-1.23-2.68 3.84 3.84 0 0 0-2.86-1.07c-.54.02-1.07.16-1.56.4Zm1.67 1.86a1.66 1.66 0 0 1 1.73 1.59 1.65 1.65 0 0 1-1.6 1.73 1.6 1.6 0 0 1-1.2-.45c-.32-.3-.5-.7-.53-1.14v-.07c0-.89.71-1.63 1.6-1.66Zm8.5-1.03a4.01 4.01 0 0 0-1.06 2.85 3.9 3.9 0 0 0 5.66 3.35 3.96 3.96 0 0 0 1.9-2.02 3.94 3.94 0 0 0-3.82-5.4 3.8 3.8 0 0 0-2.69 1.22Zm2.78 1.03a1.67 1.67 0 0 1 .14 3.32c-.9.04-1.69-.68-1.73-1.59-.04-.91.68-1.7 1.6-1.73Z"/><text x="57.43" y="74.78" style="font-family:&quot;Verdana&quot;,sans-serif;font-size:36.028px;fill:#fff">100</text><text x="66.47" y="64.62" style="font-family:&quot;LucidaGrande&quot;,&quot;Lucida Grande&quot;,sans-serif;font-weight:500;font-size:11.251px;fill:#fff" transform="matrix(2.252 0 0 2.252 -89.92 -42.95)">→</text><text x="77.72" y="64.62" style="font-family:&quot;Verdana&quot;,sans-serif;font-size:11.251px;fill:#fff" transform="matrix(2.252 0 0 2.252 -89.92 -42.95)">+0</text></svg>