<svg xmlns="http://www.w3.org/2000/svg" xml:space="preserve" style="fill-rule:evenodd;clip-rule:evenodd;stroke-linejoin:round;stroke-miterlimit:2" viewBox="0 0 148.01 148.01"><path d="M148.011 31.495C148.011 14.113 133.898 0 116.516 0H31.495C14.113 0 0 14.113 0 31.495v85.021c0 17.382 14.113 31.495 31.495 31.495h85.021c17.382 0 31.495-14.113 31.495-31.495V31.495Z" style="fill:#474747"/><path d="M142.304 31.696c0-14.344-11.645-25.989-25.989-25.989H31.696c-14.344 0-25.989 11.645-25.989 25.989v84.619c0 14.344 11.645 25.989 25.989 25.989h84.619c14.344 0 25.989-11.645 25.989-25.989V31.696Z" style="fill:#222"/><path d="M30.048 33.138c-.545.087-1.084.213-1.611.378-3.003.95-5.261 2.724-6.889 5.047a12.579 12.579 0 0 0-1.392 2.581 12.98 12.98 0 0 0-.814 3.172c-.151 1.188-.114 2.544.006 3.767.111 1.144.308 2.278.588 3.393.795 3.157 2.044 5.926 3.497 8.439 1.461 2.528 3.132 4.812 4.944 6.995.298.361.614.71.924 1.066.616.71 1.255 1.398 1.918 2.065.155.151.321.345.537.453.258.12.551.139.822.054.222-.092.421-.232.582-.411.498-.496.981-1.007 1.451-1.53 1.888-2.102 3.661-4.315 5.218-6.723 1.557-2.407 2.962-5.012 3.981-7.957a26.48 26.48 0 0 0 .875-3.104c.347-1.612.604-3.438.545-5.384a13.336 13.336 0 0 0-.196-1.794 12.475 12.475 0 0 0-.944-3.037 12.703 12.703 0 0 0-1.488-2.493 12.945 12.945 0 0 0-4.293-3.662 12.51 12.51 0 0 0-2.879-1.103 12.322 12.322 0 0 0-3.577-.392c-.605.025-1.207.085-1.805.18Z" style="fill:#fff"/><path d="M31.894 32.327h.691c2.195.079 4.014.564 5.584 1.301 1.507.7 2.879 1.658 4.056 2.83a14.156 14.156 0 0 1 4.154 9.615v.987c-.109 3.063-.773 5.631-1.621 7.97-.847 2.34-1.951 4.431-3.166 6.42-1.206 1.972-2.584 3.802-4.037 5.555a48.008 48.008 0 0 1-2.265 2.529c-.384.398-.755.846-1.233 1.166a3.266 3.266 0 0 1-1.834.56 3.191 3.191 0 0 1-1.819-.577c-.484-.323-.846-.77-1.233-1.166-.388-.396-.774-.83-1.15-1.251a50.27 50.27 0 0 1-5.14-6.839 33.969 33.969 0 0 1-3.167-6.425c-.852-2.337-1.506-4.908-1.614-7.971v-.892c.003 0 .006-.004.005-.011a14.077 14.077 0 0 1 4.141-9.653 14.116 14.116 0 0 1 4.054-2.843c1.571-.732 3.39-1.233 5.594-1.305Zm-1.66 2.389c-.499.08-.992.195-1.475.346-2.749.87-4.815 2.494-6.306 4.62a11.525 11.525 0 0 0-1.273 2.362 11.86 11.86 0 0 0-.746 2.904c-.138 1.087-.104 2.328.006 3.447.102 1.047.282 2.086.538 3.106.728 2.89 1.871 5.425 3.201 7.725 1.337 2.313 2.866 4.404 4.525 6.402.273.331.562.65.846.976.564.649 1.149 1.28 1.755 1.89.143.138.294.316.493.415.235.11.504.127.751.049.204-.084.386-.212.533-.376.456-.455.899-.921 1.328-1.401 1.728-1.924 3.351-3.949 4.776-6.153 1.426-2.204 2.711-4.588 3.644-7.283.325-.93.592-1.879.801-2.841.317-1.476.553-3.147.499-4.928-.023-.551-.083-1.1-.18-1.642a11.409 11.409 0 0 0-.863-2.78 11.7 11.7 0 0 0-1.362-2.282 11.85 11.85 0 0 0-3.93-3.352 11.451 11.451 0 0 0-2.635-1.01 11.258 11.258 0 0 0-3.274-.358c-.554.023-1.105.078-1.652.164Zm-.176 23.466a36.224 36.224 0 0 1-1.985 3.111 35.695 35.695 0 0 1-3.218-5.471c0-.009.006-.011.006-.005a11.822 11.822 0 0 0 5.197 2.365Zm-.622 4.922a40.465 40.465 0 0 0 2.993-4.721c3.151-.098 5.345-1.154 7.181-2.568a34.708 34.708 0 0 1-3.318 5.635 46.678 46.678 0 0 1-3.515 4.311c-.128.138-.262.286-.404.437-.034.036-.126.138-.134.138a.88.88 0 0 1-.096-.097c-.219-.219-.426-.462-.633-.69a43.173 43.173 0 0 1-2.074-2.445Zm10.759-22.201c-.938-.4-2.35-.614-3.644-.402-1.985.324-3.368 1.339-4.311 2.701-.755-1.09-1.798-1.958-3.195-2.419a6.632 6.632 0 0 0-1.127-.28c-1.286-.195-2.696-.012-3.638.403-.003-.033.037-.066.062-.101a9.79 9.79 0 0 1 2.994-2.725c1.252-.737 2.691-1.237 4.574-1.324a9.363 9.363 0 0 1 2.808.311c1.652.439 2.934 1.21 4.037 2.186a8.981 8.981 0 0 1 1.419 1.597c.008.015.034.033.021.053Zm-13.554 1.576c.771-.04 1.54.12 2.231.464a4.037 4.037 0 0 1 1.451 1.239c.412.569.677 1.229.772 1.924.061.399.062.829.062 1.284v4.042c0 .221-.034.473.017.644a.377.377 0 0 0 .381.291c.415.012.866.009 1.34.006.215 0 .345-.101.402-.277.053-.163.024-.426.024-.65 0-1.345-.016-2.687.006-4.031.007-.471-.011-.885.049-1.289.172-1.136.692-2.005 1.414-2.627a4.257 4.257 0 0 1 1.797-.899 4.753 4.753 0 0 1 2.389.08 4.003 4.003 0 0 1 1.704.993c.675.675 1.165 1.533 1.272 2.766.026.419.007.84-.056 1.255a9.971 9.971 0 0 1-.529 2.162c-.474 1.308-1.201 2.379-2.069 3.319a9.698 9.698 0 0 1-5.219 2.864 9.894 9.894 0 0 1-2.489.158 9.426 9.426 0 0 1-4.142-1.244 9.87 9.87 0 0 1-2.887-2.502c-.991-1.264-1.729-2.789-1.979-4.759a5.934 5.934 0 0 1-.056-1.256 4.449 4.449 0 0 1 .667-2.024c.679-1.067 1.8-1.855 3.448-1.933Zm-1.475.847a3.576 3.576 0 0 0-1.076.802 3.711 3.711 0 0 0-1.015 2.736c.055 1.169.554 1.953 1.184 2.572.328.318.714.569 1.138.74a3.843 3.843 0 0 0 1.604.281 3.638 3.638 0 0 0 1.491-.388 3.7 3.7 0 0 0 1.082-.795c.597-.652 1.048-1.501 1.014-2.736a3.745 3.745 0 0 0-.38-1.497 3.463 3.463 0 0 0-.802-1.076c-.631-.574-1.51-1.079-2.742-1.021-.52.024-1.03.153-1.498.381v.001Zm1.598 1.782c.429-.019.848.137 1.16.432.308.282.488.677.498 1.093.024.43-.132.851-.43 1.161a1.592 1.592 0 0 1-1.094.5 1.544 1.544 0 0 1-1.161-.431 1.577 1.577 0 0 1-.498-1.094l-.002-.07c0-.849.679-1.556 1.527-1.589v-.002Zm8.145-.98a3.39 3.39 0 0 0-.74 1.138 3.836 3.836 0 0 0-.28 1.598c.021.519.153 1.027.386 1.49.198.406.468.773.797 1.082a3.694 3.694 0 0 0 2.741 1.021 3.758 3.758 0 0 0 1.496-.381c.406-.198.771-.47 1.077-.802.313-.331.563-.717.739-1.137a3.776 3.776 0 0 0-2.04-4.908 3.776 3.776 0 0 0-1.603-.281c-1.189.053-1.958.552-2.573 1.18Zm2.675.98c.43-.021.85.135 1.161.432.301.286.48.678.498 1.093.022.43-.134.85-.432 1.161a1.58 1.58 0 0 1-1.093.5 1.609 1.609 0 0 1-1.665-1.521 1.61 1.61 0 0 1 1.531-1.665Z"/><path d="M65.273 64.64h3.867V33.638h-3.845l-8.25 5.93v4.082l7.884-5.715h.344V64.64ZM88.476 65.37c6.854 0 10.979-6.252 10.979-16.22v-.043c0-9.969-4.125-16.2-10.979-16.2-6.853 0-10.935 6.231-10.935 16.2v.043c0 9.968 4.082 16.22 10.935 16.22Zm0-3.373c-4.447 0-7.047-4.941-7.047-12.847v-.043c0-7.907 2.6-12.805 7.047-12.805 4.447 0 7.09 4.898 7.09 12.805v.043c0 7.906-2.643 12.847-7.09 12.847ZM116.191 65.37c6.854 0 10.979-6.252 10.979-16.22v-.043c0-9.969-4.125-16.2-10.979-16.2-6.853 0-10.936 6.231-10.936 16.2v.043c0 9.968 4.083 16.22 10.936 16.22Zm0-3.373c-4.447 0-7.047-4.941-7.047-12.847v-.043c0-7.907 2.6-12.805 7.047-12.805 4.447 0 7.09 4.898 7.09 12.805v.043c0 7.906-2.643 12.847-7.09 12.847ZM55.748 91.947c0-.344-.156-.672-.437-.937l-8.063-8.047c-.281-.266-.594-.391-.922-.391-.687 0-1.218.516-1.218 1.219 0 .328.109.656.343.875l2.157 2.234 4.437 4-3.031-.219h-14.75c-.735 0-1.25.532-1.25 1.266s.515 1.266 1.25 1.266h14.75l3.047-.219-4.453 4-2.157 2.234c-.234.219-.343.547-.343.875 0 .703.531 1.219 1.218 1.219.328 0 .641-.125.922-.391l8.063-8.046c.281-.266.437-.594.437-.938ZM78.686 95.416h7v7.156h2.531v-7.156h7v-2.531h-7v-7.157h-2.531v7.157h-7v2.531ZM107.092 103.76c4.984 0 7.984-4.547 7.984-11.797v-.032c0-7.25-3-11.781-7.984-11.781s-7.953 4.531-7.953 11.781v.032c0 7.25 2.969 11.797 7.953 11.797Zm0-2.454c-3.234 0-5.125-3.593-5.125-9.343v-.032c0-5.75 1.891-9.312 5.125-9.312s5.156 3.562 5.156 9.312v.032c0 5.75-1.922 9.343-5.156 9.343Z" style="fill:#00ff48;fill-rule:nonzero"/><path d="M54.328 121.475h8.921v2.151h-8.921zM67.152 121.475h8.921v2.151h-8.921zM79.977 121.475h8.921v2.151h-8.921z" style="fill:#777;fill-rule:nonzero"/></svg>